<svg xmlns="http://www.w3.org/2000/svg" xmlns:xlink="http://www.w3.org/1999/xlink" width="1080" zoomAndPan="magnify" viewBox="0 0 810 809.999993" height="1080" preserveAspectRatio="xMidYMid meet" version="1.0"><defs><g/></defs><g fill="#10b4ff" fill-opacity="1"><g transform="translate(51.287111, 526.32518)"><g><path d="M 11.390625 0 L 11.390625 -257.375 L 114.453125 -257.375 L 114.453125 -207.34375 L 63.21875 -207.34375 L 63.21875 -166.296875 L 111.765625 -166.296875 L 111.765625 -116.859375 L 63.21875 -116.859375 L 63.21875 0 Z M 11.390625 0 "/></g></g></g><g fill="#007aa6" fill-opacity="1"><g transform="translate(170.841792, 526.32518)"><g><path d="M 74.3125 2.390625 C 30.5625 2.390625 8.6875 -20.28125 8.6875 -65.625 L 8.6875 -153.703125 C 8.6875 -174.484375 14.53125 -191.015625 26.21875 -203.296875 C 37.90625 -215.578125 53.9375 -221.71875 74.3125 -221.71875 C 94.6875 -221.71875 110.710938 -215.578125 122.390625 -203.296875 C 134.078125 -191.015625 139.921875 -174.484375 139.921875 -153.703125 L 139.921875 -65.625 C 139.921875 -20.28125 118.050781 2.390625 74.3125 2.390625 Z M 74.3125 -38.046875 C 78.5 -38.046875 81.59375 -39.546875 83.59375 -42.546875 C 85.59375 -45.546875 86.59375 -49.640625 86.59375 -54.828125 L 86.59375 -162.09375 C 86.59375 -174.875 82.5 -181.265625 74.3125 -181.265625 C 66.113281 -181.265625 62.015625 -174.875 62.015625 -162.09375 L 62.015625 -54.828125 C 62.015625 -49.640625 63.015625 -45.546875 65.015625 -42.546875 C 67.015625 -39.546875 70.113281 -38.046875 74.3125 -38.046875 Z M 74.3125 -38.046875 "/></g></g></g><g fill="#007aa6" fill-opacity="1"><g transform="translate(319.755192, 526.32518)"><g><path d="M 76.40625 2.390625 C 52.4375 2.390625 35.15625 -3.695312 24.5625 -15.875 C 13.976562 -28.0625 8.6875 -46.738281 8.6875 -71.90625 L 8.6875 -139.625 C 8.6875 -158.601562 10.734375 -174.035156 14.828125 -185.921875 C 18.921875 -197.804688 25.8125 -206.742188 35.5 -212.734375 C 45.1875 -218.722656 58.625 -221.71875 75.8125 -221.71875 C 94.582031 -221.71875 109.859375 -216.820312 121.640625 -207.03125 C 133.429688 -197.25 139.328125 -183.570312 139.328125 -166 L 139.328125 -132.4375 L 86 -132.4375 L 86 -163.296875 C 86 -169.085938 85.195312 -173.53125 83.59375 -176.625 C 82 -179.71875 78.90625 -181.265625 74.3125 -181.265625 C 65.71875 -181.265625 61.421875 -175.175781 61.421875 -163 L 61.421875 -56.625 C 61.421875 -51.632812 62.46875 -47.390625 64.5625 -43.890625 C 66.664062 -40.398438 69.8125 -38.65625 74 -38.65625 C 78.195312 -38.65625 81.34375 -40.351562 83.4375 -43.75 C 85.539062 -47.144531 86.492188 -51.535156 86.296875 -56.921875 L 86 -93.78125 L 139.328125 -93.78125 L 139.328125 -55.4375 C 139.328125 -37.457031 133.484375 -23.320312 121.796875 -13.03125 C 110.109375 -2.75 94.976562 2.390625 76.40625 2.390625 Z M 76.40625 2.390625 "/></g></g></g><g fill="#007aa6" fill-opacity="1"><g transform="translate(466.870812, 526.32518)"><g><path d="M 52.734375 2.390625 C 36.359375 2.390625 25.125 -2.5 19.03125 -12.28125 C 12.9375 -22.070312 9.890625 -36.65625 9.890625 -56.03125 L 9.890625 -219.328125 L 62.625 -219.328125 L 62.625 -66.515625 C 62.625 -65.117188 62.625 -61.375 62.625 -55.28125 C 62.625 -49.1875 63.570312 -44.890625 65.46875 -42.390625 C 67.363281 -39.898438 70.3125 -38.65625 74.3125 -38.65625 C 79.695312 -38.65625 83.085938 -40.898438 84.484375 -45.390625 C 85.890625 -49.890625 86.59375 -56.332031 86.59375 -64.71875 L 86.59375 -66.515625 L 86.890625 -219.328125 L 139.03125 -219.328125 L 139.03125 0 L 86.59375 0 L 86.59375 -23.375 C 83 -14.1875 78.800781 -7.59375 74 -3.59375 C 69.207031 0.394531 62.117188 2.390625 52.734375 2.390625 Z M 52.734375 2.390625 "/></g></g></g><g fill="#007aa6" fill-opacity="1"><g transform="translate(616.383425, 526.32518)"><g><path d="M 70.71875 2.390625 C 27.363281 2.390625 5.6875 -19.578125 5.6875 -63.515625 L 6 -80.90625 L 58.421875 -80.90625 L 58.71875 -55.125 C 58.71875 -49.9375 59.71875 -45.992188 61.71875 -43.296875 C 63.71875 -40.597656 67.015625 -39.25 71.609375 -39.25 C 78.597656 -39.25 82.09375 -44.941406 82.09375 -56.328125 C 82.09375 -64.710938 80.441406 -71.300781 77.140625 -76.09375 C 73.847656 -80.894531 68.609375 -85.992188 61.421875 -91.390625 L 33.5625 -112.953125 C 23.96875 -120.347656 17.070312 -127.988281 12.875 -135.875 C 8.6875 -143.769531 6.59375 -154.90625 6.59375 -169.28125 C 6.59375 -180.46875 9.535156 -190.003906 15.421875 -197.890625 C 21.316406 -205.785156 29.160156 -211.726562 38.953125 -215.71875 C 48.742188 -219.71875 59.628906 -221.71875 71.609375 -221.71875 C 114.160156 -221.71875 135.4375 -200.546875 135.4375 -158.203125 L 135.4375 -154 L 81.203125 -154 L 81.203125 -162.390625 C 81.203125 -167.585938 80.351562 -172.03125 78.65625 -175.71875 C 76.957031 -179.414062 74.109375 -181.265625 70.109375 -181.265625 C 66.515625 -181.265625 63.769531 -180.21875 61.875 -178.125 C 59.976562 -176.03125 59.03125 -173.1875 59.03125 -169.59375 C 59.03125 -161.601562 62.125 -155.410156 68.3125 -151.015625 L 100.671875 -127.34375 C 112.253906 -118.75 121.140625 -109.40625 127.328125 -99.3125 C 133.523438 -89.226562 136.625 -76.5 136.625 -61.125 C 136.625 -40.75 130.832031 -25.066406 119.25 -14.078125 C 107.664062 -3.097656 91.488281 2.390625 70.71875 2.390625 Z M 70.71875 2.390625 "/></g></g></g></svg>